<svg width="174" height="23" viewBox="0 0 174 23" fill="none" xmlns="http://www.w3.org/2000/svg">
<path d="M0 6C0 2.68629 2.68629 0 6 0H17C20.3137 0 23 2.68629 23 6V17C23 20.3137 20.3137 23 17 23H6C2.68629 23 0 20.3137 0 17V6Z" fill="#0077FF"/>
<path d="M36.928 12.344C36.9813 12.4933 37.0187 12.664 37.04 12.856C37.072 13.0373 37.088 13.224 37.088 13.416C37.088 13.608 37.072 13.8 37.04 13.992C37.0187 14.1733 36.9867 14.3333 36.944 14.472C36.7733 15.0693 36.432 15.5707 35.92 15.976C35.408 16.3707 34.8213 16.6587 34.16 16.84C33.5093 17.0213 32.832 17.0853 32.128 17.032C31.4347 16.9787 30.816 16.8027 30.272 16.504C29.9307 16.312 29.6373 16.0773 29.392 15.8C29.1467 15.5227 28.9387 15.2133 28.768 14.872C28.704 14.7547 28.6613 14.6213 28.64 14.472C28.6293 14.312 28.6453 14.1627 28.688 14.024C28.7307 13.8747 28.8 13.7467 28.896 13.64C28.992 13.5227 29.1253 13.4427 29.296 13.4C29.4027 13.3787 29.52 13.368 29.648 13.368C29.7867 13.368 29.92 13.3893 30.048 13.432C30.176 13.464 30.2933 13.5227 30.4 13.608C30.5067 13.6827 30.592 13.7893 30.656 13.928C30.7733 14.152 30.9387 14.36 31.152 14.552C31.376 14.7333 31.6107 14.8827 31.856 15C32.208 15.1173 32.56 15.1653 32.912 15.144C33.2747 15.1227 33.6 15.0427 33.888 14.904C34.1867 14.7653 34.4267 14.5787 34.608 14.344C34.7893 14.0987 34.88 13.8213 34.88 13.512C34.88 13.256 34.8427 13.048 34.768 12.888C34.6933 12.7173 34.5867 12.5787 34.448 12.472C34.32 12.3547 34.16 12.2587 33.968 12.184C33.7867 12.1093 33.584 12.0453 33.36 11.992C33.104 11.9387 32.8427 11.9013 32.576 11.88C32.32 11.8587 32.0587 11.832 31.792 11.8C31.5253 11.768 31.264 11.7253 31.008 11.672C30.752 11.6187 30.5013 11.5387 30.256 11.432C29.7653 11.2293 29.392 10.92 29.136 10.504C28.88 10.088 28.7253 9.64 28.672 9.16C28.6293 8.68 28.688 8.20533 28.848 7.736C29.008 7.256 29.264 6.84533 29.616 6.504C29.9573 6.19467 30.3627 5.976 30.832 5.848C31.312 5.70933 31.84 5.62933 32.416 5.608C32.736 5.59733 33.056 5.608 33.376 5.64C33.7067 5.672 34.0213 5.72533 34.32 5.8C34.6293 5.87467 34.912 5.97067 35.168 6.088C35.4347 6.20533 35.664 6.344 35.856 6.504C35.9947 6.61067 36.1333 6.75467 36.272 6.936C36.4107 7.10667 36.5173 7.29333 36.592 7.496C36.6667 7.688 36.688 7.87467 36.656 8.056C36.6347 8.23733 36.5227 8.392 36.32 8.52C36.1493 8.62667 35.984 8.67467 35.824 8.664C35.6747 8.64267 35.5307 8.59467 35.392 8.52C35.2533 8.43467 35.12 8.33867 34.992 8.232C34.864 8.12533 34.7467 8.02933 34.64 7.944C34.352 7.73067 33.9947 7.58667 33.568 7.512C33.1413 7.43733 32.7413 7.42133 32.368 7.464C32.1333 7.496 31.9147 7.54933 31.712 7.624C31.5093 7.69867 31.3333 7.8 31.184 7.928C31.0453 8.056 30.9333 8.216 30.848 8.408C30.7733 8.58933 30.7467 8.79733 30.768 9.032C30.7787 9.20267 30.8267 9.34667 30.912 9.464C31.008 9.58133 31.12 9.67733 31.248 9.752C31.3867 9.82667 31.536 9.88533 31.696 9.928C31.856 9.97067 32.016 10.0027 32.176 10.024C32.656 10.088 33.136 10.136 33.616 10.168C34.096 10.2 34.5653 10.3067 35.024 10.488C35.4933 10.6693 35.8933 10.9147 36.224 11.224C36.5547 11.5333 36.7893 11.9067 36.928 12.344ZM41.2064 6.056C41.921 5.78933 42.5664 5.672 43.1424 5.704C43.729 5.736 44.2517 5.88533 44.7104 6.152C45.169 6.408 45.5584 6.75467 45.8784 7.192C46.209 7.62933 46.4757 8.12 46.6784 8.664C46.8384 9.06933 46.961 9.496 47.0464 9.944C47.1317 10.392 47.1797 10.84 47.1904 11.288C47.2117 11.7253 47.1957 12.1573 47.1424 12.584C47.0997 13.0107 47.025 13.4053 46.9184 13.768C46.8544 14.0133 46.7797 14.2373 46.6944 14.44C46.609 14.6427 46.5077 14.8453 46.3904 15.048C46.1237 15.5067 45.777 15.88 45.3504 16.168C44.9344 16.456 44.4757 16.6587 43.9744 16.776C43.633 16.8613 43.281 16.904 42.9184 16.904C42.5557 16.8933 42.1984 16.8453 41.8464 16.76C41.4944 16.664 41.153 16.5307 40.8224 16.36C40.5024 16.1787 40.209 15.9547 39.9424 15.688C39.6117 15.368 39.3397 15 39.1264 14.584C38.913 14.1573 38.7477 13.7147 38.6304 13.256C38.513 12.7867 38.4384 12.3173 38.4064 11.848C38.3744 11.3787 38.3744 10.9307 38.4064 10.504C38.4384 10.1093 38.513 9.688 38.6304 9.24C38.7584 8.792 38.9397 8.36 39.1744 7.944C39.409 7.528 39.6917 7.15467 40.0224 6.824C40.3637 6.48267 40.7584 6.22667 41.2064 6.056ZM44.9504 12.904C45.0784 12.4027 45.1317 11.8373 45.1104 11.208C45.089 10.5787 44.9877 9.98667 44.8064 9.432C44.689 9.09067 44.5397 8.792 44.3584 8.536C44.1877 8.26933 43.9797 8.06667 43.7344 7.928C43.4997 7.78933 43.2224 7.72 42.9024 7.72C42.5824 7.72 42.225 7.816 41.8304 8.008C41.5957 8.12533 41.393 8.28533 41.2224 8.488C41.0624 8.69067 40.929 8.92 40.8224 9.176C40.7264 9.432 40.6464 9.69867 40.5824 9.976C40.529 10.2533 40.497 10.52 40.4864 10.776C40.465 11.0533 40.4597 11.3467 40.4704 11.656C40.481 11.9547 40.513 12.2587 40.5664 12.568C40.6304 12.8667 40.7157 13.1547 40.8224 13.432C40.929 13.6987 41.073 13.9387 41.2544 14.152C41.5317 14.472 41.8517 14.696 42.2144 14.824C42.5877 14.9413 42.9557 14.9573 43.3184 14.872C43.905 14.744 44.353 14.3547 44.6624 13.704C44.7904 13.4693 44.8864 13.2027 44.9504 12.904ZM56.9954 14.312C57.134 14.6213 57.1394 14.9253 57.0114 15.224C56.8834 15.512 56.6807 15.7787 56.4034 16.024C56.126 16.2693 55.806 16.4827 55.4434 16.664C55.0914 16.8453 54.7554 16.9733 54.4354 17.048C54.0834 17.1227 53.71 17.1547 53.3154 17.144C52.9314 17.144 52.542 17.096 52.1474 17C51.7634 16.9147 51.3847 16.7867 51.0114 16.616C50.6487 16.4347 50.3127 16.216 50.0034 15.96C49.63 15.6507 49.3367 15.2827 49.1234 14.856C48.9207 14.4187 48.7714 13.9547 48.6754 13.464C48.5794 12.9733 48.526 12.4827 48.5154 11.992C48.5154 11.4907 48.5314 11.0213 48.5634 10.584C48.5954 10.1893 48.6754 9.77867 48.8034 9.352C48.9314 8.92533 49.1074 8.50933 49.3314 8.104C49.566 7.688 49.8434 7.304 50.1634 6.952C50.494 6.6 50.878 6.30133 51.3154 6.056C51.646 5.864 52.014 5.736 52.4194 5.672C52.8354 5.59733 53.2514 5.58133 53.6674 5.624C54.094 5.656 54.494 5.74667 54.8674 5.896C55.2514 6.03467 55.5767 6.22667 55.8434 6.472C56.014 6.62133 56.19 6.82933 56.3714 7.096C56.5634 7.36267 56.702 7.63467 56.7874 7.912C56.8727 8.18933 56.8727 8.45067 56.7874 8.696C56.7127 8.93067 56.4994 9.09067 56.1474 9.176C55.998 9.21867 55.8647 9.22933 55.7474 9.208C55.63 9.176 55.5234 9.128 55.4274 9.064C55.3314 8.98933 55.2407 8.904 55.1554 8.808C55.07 8.712 54.99 8.616 54.9154 8.52C54.6594 8.21067 54.3607 8.00267 54.0194 7.896C53.678 7.77867 53.3367 7.752 52.9954 7.816C52.6647 7.86933 52.35 8.008 52.0514 8.232C51.7634 8.44533 51.5394 8.72267 51.3794 9.064C51.2087 9.42667 51.07 9.82667 50.9634 10.264C50.8674 10.6907 50.814 11.128 50.8034 11.576C50.7927 12.0133 50.83 12.44 50.9154 12.856C51.0114 13.272 51.1714 13.64 51.3954 13.96C51.566 14.216 51.774 14.424 52.0194 14.584C52.2754 14.744 52.5474 14.856 52.8354 14.92C53.1234 14.984 53.4114 14.9947 53.6994 14.952C53.998 14.9093 54.286 14.8133 54.5634 14.664C54.6487 14.6213 54.7394 14.5627 54.8354 14.488C54.942 14.4027 55.0487 14.3173 55.1554 14.232C55.262 14.1467 55.3687 14.0667 55.4754 13.992C55.5927 13.9173 55.7154 13.864 55.8434 13.832C56.0354 13.768 56.2434 13.7733 56.4674 13.848C56.702 13.9227 56.878 14.0773 56.9954 14.312ZM58.886 15.304L58.902 14.04L58.918 11.688C58.9287 11.3467 58.934 10.9947 58.934 10.632C58.934 10.2693 58.934 9.896 58.934 9.512C58.934 9.128 58.934 8.78667 58.934 8.488C58.934 8.18933 58.9447 7.85333 58.966 7.48V7.416C58.9767 7.30933 58.982 7.20267 58.982 7.096C58.9927 6.97867 58.998 6.86133 58.998 6.744C59.0087 6.552 59.0673 6.344 59.174 6.12C59.2487 5.97067 59.3607 5.84267 59.51 5.736C59.6807 5.65067 59.846 5.608 60.006 5.608C60.0913 5.608 60.166 5.61333 60.23 5.624C60.3047 5.624 60.374 5.62933 60.438 5.64C60.5767 5.66133 60.6993 5.72533 60.806 5.832C60.87 5.88533 60.9287 5.97067 60.982 6.088C61.0033 6.152 61.0193 6.216 61.03 6.28C61.0513 6.33333 61.0673 6.392 61.078 6.456C61.0887 6.53067 61.094 6.6 61.094 6.664C61.1047 6.728 61.11 6.792 61.11 6.856C61.11 6.93067 61.1047 7 61.094 7.064C61.094 7.11733 61.094 7.176 61.094 7.24V7.512L60.998 15.816V15.976C60.998 16.008 60.9927 16.0507 60.982 16.104C60.982 16.1467 60.9767 16.2 60.966 16.264C60.9447 16.3173 60.9233 16.376 60.902 16.44C60.8913 16.4933 60.8753 16.552 60.854 16.616C60.822 16.6693 60.7847 16.7227 60.742 16.776C60.71 16.8187 60.6673 16.8613 60.614 16.904C60.5287 16.9893 60.39 17.048 60.198 17.08C59.91 17.144 59.638 17.1173 59.382 17C59.254 16.9147 59.1633 16.808 59.11 16.68C59.078 16.648 59.062 16.616 59.062 16.584C59.0513 16.5627 59.0407 16.5467 59.03 16.536C59.0193 16.5253 59.0087 16.5093 58.998 16.488C58.9767 16.4347 58.9607 16.3813 58.95 16.328C58.9393 16.264 58.934 16.2 58.934 16.136C58.9233 16.0827 58.9127 16.0293 58.902 15.976C58.902 15.9227 58.8967 15.8693 58.886 15.816C58.8753 15.7307 58.8753 15.64 58.886 15.544V15.304ZM72.7464 15.912C72.757 15.976 72.7624 16.04 72.7624 16.104C72.773 16.1573 72.7784 16.2213 72.7784 16.296C72.7784 16.424 72.741 16.5413 72.6664 16.648C72.6344 16.7013 72.5917 16.7547 72.5384 16.808C72.485 16.8507 72.421 16.888 72.3464 16.92C72.0797 17.0693 71.797 17.1227 71.4984 17.08C71.349 17.0373 71.2157 16.968 71.0984 16.872C71.077 16.8507 71.061 16.84 71.0504 16.84C71.0397 16.8293 71.029 16.8133 71.0184 16.792C71.0077 16.7813 70.997 16.7707 70.9864 16.76C70.9757 16.7387 70.9597 16.7227 70.9384 16.712C70.885 16.6587 70.8424 16.6107 70.8104 16.568C70.7784 16.5147 70.7464 16.4613 70.7144 16.408C70.693 16.3547 70.6664 16.3067 70.6344 16.264C70.613 16.2107 70.5864 16.1573 70.5544 16.104C70.533 16.0613 70.5117 16.024 70.4904 15.992C70.469 15.9493 70.453 15.9067 70.4424 15.864C70.3997 15.768 70.373 15.6827 70.3624 15.608L70.0264 14.824C69.2904 14.824 68.5544 14.8293 67.8184 14.84C67.093 14.84 66.3624 14.8347 65.6264 14.824L65.2904 15.608C65.269 15.6507 65.253 15.6933 65.2424 15.736C65.2424 15.7787 65.2317 15.8213 65.2104 15.864C65.189 15.9067 65.1677 15.9493 65.1464 15.992C65.1357 16.024 65.1197 16.0613 65.0984 16.104C65.0664 16.1573 65.0344 16.2107 65.0024 16.264C64.981 16.3067 64.9544 16.3547 64.9224 16.408C64.901 16.4613 64.8744 16.5147 64.8424 16.568C64.8104 16.6107 64.7677 16.6587 64.7144 16.712C64.693 16.7227 64.677 16.7387 64.6664 16.76C64.6557 16.7707 64.645 16.7813 64.6344 16.792C64.6237 16.8133 64.613 16.8293 64.6024 16.84C64.5917 16.84 64.5757 16.8507 64.5544 16.872C64.437 16.968 64.3037 17.0373 64.1544 17.08C63.8557 17.1227 63.573 17.0693 63.3064 16.92C63.2317 16.888 63.1677 16.8507 63.1144 16.808C63.061 16.7547 63.0184 16.7013 62.9864 16.648C62.9117 16.5413 62.8744 16.424 62.8744 16.296C62.8744 16.2213 62.8744 16.1573 62.8744 16.104C62.885 16.04 62.8957 15.976 62.9064 15.912C62.9277 15.816 62.9544 15.72 62.9864 15.624C63.0184 15.528 63.0344 15.48 63.0344 15.48L66.3624 7.288L66.4584 7.032C66.4797 6.968 66.5064 6.90933 66.5384 6.856C66.5704 6.80267 66.597 6.73867 66.6184 6.664C66.6717 6.52533 66.7304 6.40267 66.7944 6.296C66.8264 6.232 66.8637 6.17333 66.9064 6.12C66.949 6.06667 66.9917 6.01333 67.0344 5.96C67.0984 5.87467 67.189 5.80533 67.3064 5.752C67.4557 5.69867 67.6264 5.672 67.8184 5.672C68.021 5.672 68.197 5.69867 68.3464 5.752C68.4637 5.80533 68.5544 5.87467 68.6184 5.96C68.693 6.056 68.773 6.168 68.8584 6.296C68.9224 6.40267 68.981 6.52533 69.0344 6.664C69.0557 6.73867 69.0824 6.80267 69.1144 6.856C69.1464 6.90933 69.173 6.968 69.1944 7.032L69.2904 7.288L72.6184 15.48C72.6184 15.48 72.6344 15.528 72.6664 15.624C72.6984 15.72 72.725 15.816 72.7464 15.912ZM68.9544 11.992C68.8157 11.6827 68.6717 11.3627 68.5224 11.032C68.3837 10.7013 68.2344 10.3653 68.0744 10.024C68.0317 9.928 67.989 9.832 67.9464 9.736C67.9037 9.62933 67.861 9.528 67.8184 9.432C67.7864 9.528 67.749 9.62933 67.7064 9.736C67.6637 9.832 67.621 9.928 67.5784 10.024C67.4184 10.3653 67.2637 10.7013 67.1144 11.032C66.9757 11.3627 66.837 11.6827 66.6984 11.992L66.4104 12.696H69.2424L68.9544 11.992ZM81.4539 15.784C81.4752 15.8373 81.4859 15.9173 81.4859 16.024C81.4859 16.12 81.4859 16.2 81.4859 16.264C81.4859 16.3493 81.4699 16.4293 81.4379 16.504C81.4059 16.5787 81.3632 16.648 81.3099 16.712C81.2139 16.84 81.0752 16.936 80.8939 17C80.6379 17.0853 80.3979 17.128 80.1739 17.128C80.0565 17.1387 79.9339 17.144 79.8059 17.144C79.6779 17.144 79.5499 17.1547 79.4219 17.176H79.3579C78.5365 17.1867 77.6885 17.1867 76.8139 17.176C76.6005 17.1653 76.3605 17.1653 76.0939 17.176C75.8272 17.1973 75.5659 17.192 75.3099 17.16C75.0539 17.1387 74.8192 17.08 74.6059 16.984C74.4032 16.8773 74.2592 16.712 74.1739 16.488C74.1525 16.4347 74.1365 16.3867 74.1259 16.344C74.1152 16.2907 74.1099 16.2373 74.1099 16.184C74.0672 15.8213 74.0512 15.464 74.0619 15.112C74.0725 14.76 74.0779 14.4133 74.0779 14.072L74.1099 11.752V9.608C74.1099 9.224 74.1099 8.88267 74.1099 8.584C74.1205 8.28533 74.1312 7.95467 74.1419 7.592V7.512C74.1525 7.40533 74.1579 7.29867 74.1579 7.192C74.1685 7.08533 74.1739 6.97867 74.1739 6.872C74.1952 6.62667 74.2539 6.41867 74.3499 6.248C74.4139 6.088 74.5259 5.96 74.6859 5.864C74.8245 5.768 74.9899 5.72 75.1819 5.72C75.2565 5.72 75.3259 5.72533 75.3899 5.736C75.4645 5.736 75.5339 5.74133 75.5979 5.752C75.6619 5.76267 75.7205 5.784 75.7739 5.816C75.8379 5.848 75.9019 5.89067 75.9659 5.944C76.0299 6.01867 76.0885 6.10933 76.1419 6.216C76.1845 6.33333 76.2112 6.45067 76.2219 6.568C76.2325 6.64267 76.2432 6.712 76.2539 6.776C76.2645 6.84 76.2699 6.904 76.2699 6.968C76.2485 7.032 76.2379 7.096 76.2379 7.16C76.2379 7.224 76.2379 7.28267 76.2379 7.336V7.624L76.1739 15.16L79.3419 15.192H80.0939C80.1579 15.192 80.2272 15.1973 80.3019 15.208C80.3765 15.208 80.4512 15.2133 80.5259 15.224C80.6112 15.2347 80.6859 15.2453 80.7499 15.256C80.8139 15.2667 80.8779 15.2827 80.9419 15.304C81.0592 15.336 81.1552 15.3893 81.2299 15.464C81.3472 15.5707 81.4219 15.6773 81.4539 15.784ZM95.6253 15.784C95.6146 15.9653 95.5879 16.1573 95.5453 16.36C95.5133 16.5627 95.4119 16.728 95.2413 16.856C95.1133 16.9627 94.9693 17.0267 94.8093 17.048C94.6493 17.0693 94.4893 17.0587 94.3293 17.016C94.1799 16.984 94.0359 16.9307 93.8973 16.856C93.7586 16.7707 93.6466 16.6693 93.5613 16.552C93.1986 16.104 92.8626 15.6453 92.5533 15.176C92.2546 14.696 91.9506 14.216 91.6413 13.736L90.2973 11.704C90.1159 11.416 89.9239 11.096 89.7213 10.744C89.5186 10.3813 89.3106 10.0453 89.0973 9.736L89.0493 15.848V15.992C89.0493 16.1627 89.0173 16.3333 88.9533 16.504C88.8999 16.664 88.8039 16.8027 88.6653 16.92C88.5586 17.0053 88.4199 17.064 88.2493 17.096C87.9826 17.1493 87.7586 17.1333 87.5773 17.048C87.4066 16.9627 87.2679 16.8453 87.1613 16.696C87.0653 16.5467 86.9959 16.376 86.9533 16.184C86.9213 15.9813 86.9159 15.784 86.9373 15.592V15.32L86.9693 14.072L86.9853 11.752C86.9959 11.4107 87.0013 11.064 87.0013 10.712C87.0013 10.3493 87.0013 9.98133 87.0013 9.608C86.9906 9.14933 86.9906 8.664 87.0013 8.152C87.0226 7.64 87.0439 7.16 87.0653 6.712C87.0866 6.46667 87.1453 6.25867 87.2413 6.088C87.2839 5.93867 87.3959 5.81067 87.5773 5.704C87.6946 5.62933 87.8439 5.58133 88.0253 5.56C88.2173 5.53867 88.3826 5.544 88.5213 5.576C88.5746 5.59733 88.6279 5.624 88.6813 5.656C88.7346 5.67733 88.7879 5.704 88.8413 5.736C88.8946 5.77867 88.9426 5.82133 88.9853 5.864C89.0386 5.90667 89.0866 5.95467 89.1293 6.008C89.1826 6.06133 89.2306 6.12 89.2733 6.184C89.3159 6.23733 89.3586 6.29067 89.4013 6.344C89.4333 6.408 89.4653 6.46667 89.4973 6.52C89.5293 6.57333 89.5666 6.62667 89.6093 6.68L89.7853 6.936L93.4813 12.76V11.704C93.4813 11.3627 93.4759 11.016 93.4653 10.664C93.4653 10.3013 93.4599 9.928 93.4493 9.544C93.4493 9.096 93.4493 8.616 93.4493 8.104C93.4599 7.592 93.4759 7.112 93.4973 6.664C93.4973 6.48267 93.5506 6.27467 93.6573 6.04C93.7106 5.90133 93.8013 5.78933 93.9293 5.704C94.0573 5.61867 94.2013 5.56 94.3612 5.528C94.5213 5.496 94.6813 5.496 94.8413 5.528C95.0013 5.56 95.1399 5.624 95.2573 5.72C95.2893 5.752 95.3213 5.78933 95.3533 5.832C95.3853 5.87467 95.4119 5.92267 95.4333 5.976C95.4866 6.11467 95.5186 6.23733 95.5293 6.344C95.5613 6.49333 95.5773 6.62667 95.5773 6.744C95.5773 8.07733 95.5773 9.43733 95.5773 10.824C95.5879 12.2107 95.5986 13.5707 95.6093 14.904C95.6093 15.0533 95.6146 15.2027 95.6253 15.352C95.6359 15.4907 95.6359 15.6347 95.6253 15.784ZM99.4258 7.592L99.3938 10.104H100.034C100.471 10.0933 100.86 10.088 101.202 10.088C101.543 10.088 101.922 10.0933 102.338 10.104H102.418C102.546 10.104 102.668 10.1093 102.786 10.12C102.914 10.12 103.036 10.12 103.154 10.12C103.282 10.1307 103.404 10.152 103.522 10.184C103.639 10.2053 103.756 10.232 103.874 10.264C104.055 10.328 104.204 10.424 104.322 10.552C104.428 10.6907 104.482 10.8453 104.482 11.016C104.482 11.0693 104.482 11.1333 104.482 11.208C104.482 11.272 104.471 11.3307 104.45 11.384C104.428 11.5013 104.359 11.608 104.242 11.704C104.188 11.7787 104.087 11.832 103.938 11.864C103.799 11.9067 103.66 11.9333 103.522 11.944C103.372 11.976 103.223 11.992 103.074 11.992H102.322L99.3618 12.008L99.3298 15.144L102.514 15.176H103.266C103.351 15.176 103.431 15.176 103.506 15.176C103.58 15.176 103.65 15.1813 103.714 15.192C103.799 15.2133 103.874 15.2293 103.938 15.24C104.012 15.24 104.082 15.2507 104.146 15.272C104.274 15.3147 104.38 15.3733 104.466 15.448C104.572 15.5547 104.642 15.6667 104.674 15.784C104.684 15.8373 104.69 15.896 104.69 15.96C104.7 16.0133 104.7 16.072 104.69 16.136C104.69 16.3067 104.636 16.4613 104.53 16.6C104.402 16.7493 104.252 16.8453 104.082 16.888C103.858 16.984 103.612 17.032 103.346 17.032C103.228 17.0427 103.106 17.048 102.978 17.048C102.85 17.048 102.727 17.0533 102.61 17.064H102.514C101.682 17.0853 100.818 17.0853 99.9218 17.064C99.7084 17.064 99.5378 17.0587 99.4098 17.048C99.2818 17.048 99.1644 17.048 99.0578 17.048C98.9618 17.048 98.8604 17.048 98.7538 17.048C98.6471 17.048 98.5084 17.048 98.3378 17.048C98.0924 17.0693 97.8898 17.0267 97.7298 16.92C97.6124 16.8453 97.5218 16.744 97.4578 16.616C97.4258 16.584 97.4098 16.552 97.4098 16.52C97.3991 16.4987 97.3884 16.4827 97.3778 16.472C97.3671 16.4613 97.3564 16.4453 97.3458 16.424C97.3244 16.3707 97.3084 16.3173 97.2978 16.264C97.2871 16.2 97.2818 16.1413 97.2818 16.088C97.2711 16.0347 97.2604 15.9813 97.2498 15.928C97.2498 15.8747 97.2444 15.8213 97.2338 15.768V15.512C97.2338 15.4693 97.2338 15.4267 97.2338 15.384C97.2444 15.3413 97.2498 15.2987 97.2498 15.256V14.008L97.2818 11.704V9.576C97.2818 9.192 97.2818 8.85067 97.2818 8.552C97.2924 8.25333 97.3031 7.928 97.3138 7.576V7.496C97.3244 7.37867 97.3298 7.272 97.3298 7.176C97.3404 7.06933 97.3458 6.96267 97.3458 6.856C97.3564 6.64267 97.4151 6.43467 97.5218 6.232C97.5644 6.14667 97.6071 6.072 97.6497 6.008C97.7031 5.944 97.7724 5.89067 97.8578 5.848C98.0178 5.752 98.1831 5.704 98.3538 5.704C98.4391 5.704 98.5031 5.70933 98.5458 5.72V5.704C98.7378 5.704 98.8924 5.704 99.0098 5.704C99.1271 5.704 99.2391 5.704 99.3458 5.704C99.4631 5.704 99.5858 5.704 99.7138 5.704C99.8418 5.69333 100.018 5.688 100.242 5.688C100.668 5.67733 101.074 5.672 101.458 5.672C101.842 5.672 102.236 5.67733 102.642 5.688H102.706C102.823 5.69867 102.946 5.704 103.074 5.704C103.202 5.704 103.324 5.70933 103.442 5.72C103.559 5.72 103.676 5.736 103.794 5.768C103.911 5.78933 104.028 5.82133 104.146 5.864C104.327 5.91733 104.476 6.008 104.594 6.136C104.69 6.28533 104.738 6.43467 104.738 6.584C104.738 6.648 104.738 6.712 104.738 6.776C104.738 6.82933 104.727 6.88267 104.706 6.936C104.695 7.04267 104.631 7.15467 104.514 7.272C104.471 7.29333 104.423 7.32 104.37 7.352C104.327 7.384 104.274 7.41067 104.21 7.432C104.146 7.45333 104.076 7.46933 104.002 7.48C103.938 7.48 103.874 7.48533 103.81 7.496C103.724 7.51733 103.644 7.528 103.57 7.528C103.506 7.528 103.431 7.528 103.346 7.528H102.626L99.4258 7.544V7.592ZM114.535 6.168C114.652 6.30667 114.711 6.45067 114.711 6.6C114.711 6.664 114.705 6.73333 114.695 6.808C114.695 6.872 114.689 6.93067 114.679 6.984C114.647 7.10133 114.577 7.21333 114.47 7.32C114.385 7.384 114.268 7.432 114.119 7.464C114.044 7.48533 113.969 7.50133 113.895 7.512C113.82 7.52267 113.74 7.53867 113.655 7.56C113.58 7.57067 113.505 7.576 113.431 7.576C113.356 7.576 113.276 7.576 113.191 7.576H112.375C112.183 7.58667 111.991 7.592 111.799 7.592C111.617 7.592 111.436 7.592 111.255 7.592C111.265 7.92267 111.271 8.28 111.271 8.664C111.271 9.03733 111.265 9.47467 111.255 9.976C111.255 10.4773 111.249 11.0587 111.239 11.72C111.239 12.3813 111.239 13.1493 111.239 14.024V15.24C111.239 15.3467 111.244 15.4267 111.255 15.48C111.255 15.5227 111.255 15.5653 111.255 15.608C111.255 15.64 111.249 15.6827 111.239 15.736C111.217 15.832 111.201 15.944 111.191 16.072C111.191 16.1253 111.185 16.1787 111.175 16.232C111.164 16.2747 111.148 16.3227 111.127 16.376C111.084 16.4187 111.063 16.4507 111.063 16.472L111.015 16.568C110.961 16.6747 110.86 16.776 110.711 16.872C110.476 16.9893 110.215 17.016 109.927 16.952C109.745 16.9307 109.607 16.8827 109.511 16.808C109.415 16.712 109.345 16.616 109.303 16.52C109.239 16.4027 109.201 16.2907 109.191 16.184C109.159 16.088 109.143 15.9867 109.143 15.88V7.656C109.079 7.656 108.945 7.656 108.743 7.656C108.54 7.656 108.321 7.656 108.087 7.656C107.863 7.64533 107.649 7.63467 107.447 7.624C107.244 7.61333 107.105 7.60267 107.031 7.592C106.967 7.58133 106.865 7.56533 106.727 7.544C106.599 7.52267 106.492 7.50133 106.407 7.48C106.183 7.416 106.007 7.31467 105.879 7.176C105.761 7.03733 105.703 6.88267 105.703 6.712C105.703 6.648 105.703 6.584 105.703 6.52C105.703 6.456 105.713 6.39733 105.735 6.344C105.767 6.216 105.852 6.10933 105.991 6.024C106.033 5.992 106.097 5.95467 106.183 5.912C106.279 5.85867 106.369 5.82133 106.455 5.8C106.583 5.75733 106.743 5.72533 106.935 5.704C107.02 5.69333 107.105 5.688 107.191 5.688C107.276 5.688 107.367 5.688 107.463 5.688C107.836 5.688 108.188 5.688 108.519 5.688C108.86 5.688 109.217 5.68267 109.591 5.672C110.209 5.66133 110.823 5.66133 111.431 5.672C112.049 5.672 112.663 5.68267 113.271 5.704C113.409 5.71467 113.543 5.73067 113.671 5.752C113.799 5.77333 113.927 5.81067 114.055 5.864C114.151 5.896 114.241 5.93867 114.327 5.992C114.412 6.03467 114.481 6.09333 114.535 6.168ZM127.408 6.312C127.45 6.51467 127.45 6.728 127.408 6.952C127.386 7.05867 127.365 7.16533 127.344 7.272C127.333 7.368 127.317 7.46933 127.296 7.576L127.28 7.64C127.13 8.30133 126.96 9 126.768 9.736C126.586 10.4613 126.421 11.1493 126.272 11.8C126.144 12.3333 126.01 12.92 125.872 13.56C125.733 14.2 125.589 14.7867 125.44 15.32C125.386 15.5013 125.328 15.6827 125.264 15.864C125.21 16.0453 125.141 16.2267 125.056 16.408C124.981 16.568 124.89 16.712 124.784 16.84C124.688 16.9573 124.576 17.0427 124.448 17.096C124.32 17.16 124.181 17.1813 124.032 17.16C123.893 17.1493 123.738 17.0853 123.568 16.968C123.312 16.7867 123.12 16.536 122.992 16.216C122.874 15.896 122.752 15.6027 122.624 15.336C122.581 15.2613 122.517 15.096 122.432 14.84C122.346 14.584 122.256 14.3067 122.16 14.008C122.064 13.6987 121.968 13.4053 121.872 13.128C121.786 12.84 121.712 12.6267 121.648 12.488C121.552 12.7227 121.456 12.9893 121.36 13.288C121.264 13.5867 121.173 13.88 121.088 14.168C121.002 14.456 120.922 14.7173 120.848 14.952C120.784 15.176 120.736 15.3413 120.704 15.448C120.618 15.6613 120.522 15.896 120.416 16.152C120.32 16.408 120.197 16.6267 120.048 16.808C119.909 16.9893 119.738 17.1067 119.536 17.16C119.333 17.224 119.093 17.1653 118.816 16.984C118.602 16.856 118.453 16.6747 118.368 16.44C118.314 16.2907 118.261 16.1467 118.208 16.008C118.154 15.8693 118.112 15.7253 118.08 15.576L117.76 14.376L117.104 11.8C117.018 11.4693 116.933 11.1333 116.848 10.792C116.773 10.44 116.682 10.0773 116.576 9.704C116.522 9.52267 116.474 9.34667 116.432 9.176C116.4 8.99467 116.362 8.80267 116.32 8.6C116.288 8.38667 116.245 8.14667 116.192 7.88C116.149 7.61333 116.096 7.304 116.032 6.952C116.01 6.83467 115.994 6.728 115.984 6.632C115.984 6.52533 115.994 6.41867 116.016 6.312C116.037 6.152 116.112 6.01333 116.24 5.896C116.293 5.84267 116.357 5.8 116.432 5.768C116.506 5.736 116.586 5.70933 116.672 5.688C116.8 5.64533 116.933 5.624 117.072 5.624C117.2 5.624 117.333 5.66667 117.472 5.752C117.568 5.80533 117.642 5.87467 117.696 5.96L117.888 6.296C117.909 6.37067 117.93 6.44 117.952 6.504C117.973 6.55733 117.994 6.616 118.016 6.68C118.037 6.75467 118.053 6.824 118.064 6.888C118.074 6.94133 118.085 6.99467 118.096 7.048C118.192 7.60267 118.309 8.14133 118.448 8.664C118.586 9.18667 118.714 9.688 118.832 10.168C118.874 10.36 118.928 10.6 118.992 10.888C119.056 11.1653 119.12 11.4587 119.184 11.768C119.248 12.0667 119.312 12.3547 119.376 12.632C119.44 12.9093 119.504 13.128 119.568 13.288C119.706 12.808 119.845 12.328 119.984 11.848C120.133 11.368 120.293 10.8827 120.464 10.392C120.549 10.136 120.634 9.90667 120.72 9.704C120.816 9.49067 120.922 9.31467 121.04 9.176C121.157 9.03733 121.29 8.94667 121.44 8.904C121.589 8.86133 121.765 8.87733 121.968 8.952C122.149 9.02667 122.309 9.18667 122.448 9.432C122.586 9.67733 122.709 9.928 122.816 10.184C122.912 10.4187 123.002 10.6693 123.088 10.936C123.184 11.192 123.274 11.448 123.36 11.704C123.456 11.9493 123.546 12.184 123.632 12.408C123.717 12.632 123.802 12.824 123.888 12.984C123.92 12.8667 123.957 12.7173 124 12.536C124.042 12.3547 124.085 12.1627 124.128 11.96C124.181 11.7467 124.229 11.5387 124.272 11.336C124.314 11.1333 124.357 10.9467 124.4 10.776C124.538 10.2 124.682 9.624 124.832 9.048C124.981 8.46133 125.125 7.88533 125.264 7.32L125.344 7.048C125.365 6.99467 125.376 6.94133 125.376 6.888C125.386 6.824 125.402 6.75467 125.424 6.68C125.445 6.616 125.466 6.55733 125.488 6.504C125.509 6.44 125.53 6.37067 125.552 6.296C125.573 6.24267 125.594 6.18933 125.616 6.136C125.648 6.072 125.685 6.01333 125.728 5.96C125.76 5.90667 125.797 5.864 125.84 5.832C125.882 5.8 125.925 5.77333 125.968 5.752C126.117 5.66667 126.245 5.624 126.352 5.624C126.49 5.624 126.624 5.64533 126.752 5.688C126.922 5.72 127.077 5.78933 127.216 5.896C127.322 6.00267 127.386 6.14133 127.408 6.312ZM131.566 6.056C132.28 5.78933 132.926 5.672 133.502 5.704C134.088 5.736 134.611 5.88533 135.07 6.152C135.528 6.408 135.918 6.75467 136.238 7.192C136.568 7.62933 136.835 8.12 137.038 8.664C137.198 9.06933 137.32 9.496 137.406 9.944C137.491 10.392 137.539 10.84 137.55 11.288C137.571 11.7253 137.555 12.1573 137.502 12.584C137.459 13.0107 137.384 13.4053 137.278 13.768C137.214 14.0133 137.139 14.2373 137.054 14.44C136.968 14.6427 136.867 14.8453 136.75 15.048C136.483 15.5067 136.136 15.88 135.71 16.168C135.294 16.456 134.835 16.6587 134.334 16.776C133.992 16.8613 133.64 16.904 133.278 16.904C132.915 16.8933 132.558 16.8453 132.206 16.76C131.854 16.664 131.512 16.5307 131.182 16.36C130.862 16.1787 130.568 15.9547 130.302 15.688C129.971 15.368 129.699 15 129.486 14.584C129.272 14.1573 129.107 13.7147 128.99 13.256C128.872 12.7867 128.798 12.3173 128.766 11.848C128.734 11.3787 128.734 10.9307 128.766 10.504C128.798 10.1093 128.872 9.688 128.99 9.24C129.118 8.792 129.299 8.36 129.534 7.944C129.768 7.528 130.051 7.15467 130.382 6.824C130.723 6.48267 131.118 6.22667 131.566 6.056ZM135.31 12.904C135.438 12.4027 135.491 11.8373 135.47 11.208C135.448 10.5787 135.347 9.98667 135.166 9.432C135.048 9.09067 134.899 8.792 134.718 8.536C134.547 8.26933 134.339 8.06667 134.094 7.928C133.859 7.78933 133.582 7.72 133.262 7.72C132.942 7.72 132.584 7.816 132.19 8.008C131.955 8.12533 131.752 8.28533 131.582 8.488C131.422 8.69067 131.288 8.92 131.182 9.176C131.086 9.432 131.006 9.69867 130.942 9.976C130.888 10.2533 130.856 10.52 130.846 10.776C130.824 11.0533 130.819 11.3467 130.83 11.656C130.84 11.9547 130.872 12.2587 130.926 12.568C130.99 12.8667 131.075 13.1547 131.182 13.432C131.288 13.6987 131.432 13.9387 131.614 14.152C131.891 14.472 132.211 14.696 132.574 14.824C132.947 14.9413 133.315 14.9573 133.678 14.872C134.264 14.744 134.712 14.3547 135.022 13.704C135.15 13.4693 135.246 13.2027 135.31 12.904ZM147.115 16.296C147.125 16.4027 147.115 16.504 147.083 16.6C147.061 16.664 147.029 16.7173 146.987 16.76C146.955 16.8027 146.912 16.8453 146.859 16.888C146.763 16.952 146.645 17.0107 146.507 17.064C146.421 17.0853 146.336 17.1013 146.251 17.112C146.176 17.1333 146.096 17.1333 146.011 17.112C145.84 17.1013 145.691 17.0373 145.563 16.92C145.381 16.7707 145.232 16.6053 145.115 16.424C145.061 16.3387 145.003 16.2427 144.939 16.136C144.875 16.0293 144.816 15.9173 144.763 15.8L142.987 12.424C142.901 12.424 142.816 12.4293 142.731 12.44C142.645 12.44 142.56 12.4453 142.475 12.456C142.251 12.4773 142.037 12.4827 141.835 12.472C141.643 12.4613 141.44 12.4613 141.227 12.472H140.923V15.368C140.923 15.4533 140.917 15.5333 140.907 15.608C140.907 15.6827 140.907 15.7627 140.907 15.848C140.907 15.9013 140.901 15.9707 140.891 16.056C140.891 16.1413 140.885 16.2213 140.875 16.296C140.853 16.4133 140.805 16.536 140.731 16.664C140.656 16.7813 140.555 16.8827 140.427 16.968C140.203 17.1067 139.931 17.144 139.611 17.08C139.472 17.048 139.339 16.9947 139.211 16.92C139.168 16.888 139.131 16.8507 139.099 16.808C139.067 16.7547 139.04 16.7013 139.019 16.648C138.997 16.5947 138.976 16.5413 138.955 16.488C138.944 16.424 138.928 16.3653 138.907 16.312C138.875 16.2053 138.859 16.104 138.859 16.008V6.92C138.859 6.856 138.859 6.792 138.859 6.728C138.869 6.65333 138.88 6.58933 138.891 6.536C138.901 6.41867 138.939 6.30133 139.003 6.184C139.035 6.056 139.088 5.96533 139.163 5.912C139.227 5.848 139.323 5.79467 139.451 5.752C139.589 5.69867 139.787 5.67733 140.043 5.688C140.523 5.69867 140.997 5.704 141.467 5.704C141.936 5.704 142.405 5.71467 142.875 5.736C143.184 5.75733 143.509 5.79467 143.851 5.848C144.203 5.89067 144.528 5.97067 144.827 6.088C145.019 6.16267 145.195 6.23733 145.355 6.312C145.557 6.42933 145.717 6.54133 145.835 6.648C146.208 6.98933 146.491 7.4 146.683 7.88C146.875 8.36 146.971 8.84533 146.971 9.336C146.971 9.912 146.832 10.44 146.555 10.92C146.288 11.4 145.856 11.7573 145.259 11.992C145.237 12.0133 145.205 12.0293 145.163 12.04C145.131 12.04 145.104 12.0453 145.083 12.056L146.555 15.016L146.699 15.272C146.72 15.3147 146.747 15.3627 146.779 15.416C146.811 15.4693 146.837 15.5227 146.859 15.576C146.891 15.6293 146.917 15.688 146.939 15.752C146.971 15.816 147.003 15.8747 147.035 15.928C147.067 16.0773 147.093 16.2 147.115 16.296ZM143.115 10.6C143.307 10.6 143.488 10.568 143.659 10.504C143.84 10.4293 144 10.3333 144.139 10.216C144.288 10.0987 144.411 9.96533 144.507 9.816C144.603 9.656 144.656 9.48533 144.667 9.304C144.709 8.77067 144.571 8.376 144.251 8.12C143.931 7.85333 143.509 7.70933 142.987 7.688C142.677 7.66667 142.336 7.656 141.963 7.656C141.6 7.656 141.253 7.656 140.923 7.656C140.933 8.09333 140.933 8.54133 140.923 9C140.923 9.448 140.923 9.98133 140.923 10.6H143.115ZM156.15 15.848C156.235 16.008 156.24 16.168 156.166 16.328C156.112 16.4987 156.022 16.6267 155.894 16.712C155.83 16.7653 155.771 16.8133 155.718 16.856C155.664 16.888 155.606 16.9147 155.542 16.936C155.424 17 155.286 17.0213 155.126 17C155.062 17 155.003 16.9893 154.95 16.968C154.896 16.9467 154.843 16.92 154.79 16.888C154.736 16.856 154.678 16.824 154.614 16.792C154.56 16.7493 154.507 16.7067 154.454 16.664C154.39 16.6107 154.331 16.5627 154.278 16.52C154.224 16.4773 154.176 16.4293 154.134 16.376C154.08 16.3227 154.032 16.2693 153.99 16.216C153.947 16.1627 153.904 16.1147 153.862 16.072L153.67 15.864L150.598 12.648L150.646 15.864V16.008C150.646 16.0507 150.64 16.0987 150.63 16.152C150.619 16.1947 150.608 16.2427 150.598 16.296C150.566 16.4347 150.528 16.5573 150.486 16.664C150.464 16.728 150.432 16.7813 150.39 16.824C150.358 16.8667 150.32 16.9093 150.278 16.952C150.16 17.0587 150.022 17.1173 149.862 17.128C149.702 17.1813 149.552 17.1973 149.414 17.176C149.286 17.1653 149.152 17.128 149.014 17.064C148.907 17 148.811 16.8933 148.726 16.744C148.704 16.7013 148.688 16.6747 148.678 16.664C148.678 16.6533 148.667 16.616 148.646 16.552C148.582 16.4453 148.55 16.3387 148.55 16.232C148.539 16.168 148.528 16.1093 148.518 16.056C148.518 16.0027 148.512 15.944 148.502 15.88C148.491 15.8373 148.486 15.7947 148.486 15.752C148.486 15.7093 148.486 15.6667 148.486 15.624C148.496 15.5707 148.502 15.528 148.502 15.496C148.502 15.4533 148.502 15.4053 148.502 15.352L148.486 14.088L148.47 11.736C148.47 11.0533 148.454 10.3173 148.422 9.528C148.411 9.144 148.406 8.80267 148.406 8.504C148.406 8.20533 148.411 7.86933 148.422 7.496V7.432C148.443 7.31467 148.454 7.20267 148.454 7.096C148.454 6.97867 148.459 6.86667 148.47 6.76C148.47 6.54667 148.518 6.33333 148.614 6.12C148.678 5.96 148.79 5.832 148.95 5.736C149.035 5.68267 149.115 5.65067 149.19 5.64C149.275 5.61867 149.366 5.59733 149.462 5.576C149.536 5.576 149.606 5.58133 149.67 5.592C149.744 5.60267 149.814 5.61333 149.878 5.624C150.016 5.64533 150.144 5.704 150.262 5.8C150.294 5.832 150.32 5.86933 150.342 5.912C150.374 5.95467 150.4 6.008 150.422 6.072C150.475 6.15733 150.512 6.28 150.534 6.44C150.544 6.504 150.55 6.568 150.55 6.632C150.56 6.696 150.566 6.76533 150.566 6.84V7.496L150.582 9.448C150.752 9.29867 150.918 9.144 151.078 8.984C151.248 8.824 151.414 8.65333 151.574 8.472C151.862 8.17333 152.144 7.88533 152.422 7.608C152.71 7.32 152.998 7.03733 153.286 6.76L153.334 6.712C153.419 6.62667 153.504 6.54667 153.59 6.472C153.686 6.38667 153.776 6.30667 153.862 6.232C154.022 6.05067 154.219 5.92267 154.454 5.848C154.603 5.752 154.779 5.71467 154.982 5.736C155.078 5.74667 155.163 5.768 155.238 5.8C155.323 5.832 155.403 5.87467 155.478 5.928C155.531 5.98133 155.584 6.02933 155.638 6.072C155.691 6.104 155.734 6.14667 155.766 6.2C155.851 6.27467 155.904 6.38667 155.926 6.536C155.926 6.65333 155.904 6.76 155.862 6.856C155.83 6.90933 155.798 6.96267 155.766 7.016C155.734 7.06933 155.696 7.12267 155.654 7.176C155.6 7.24 155.552 7.29867 155.51 7.352C155.467 7.40533 155.419 7.45867 155.366 7.512C155.323 7.56533 155.275 7.61333 155.222 7.656C155.179 7.69867 155.136 7.74667 155.094 7.8L154.886 8.008L151.894 11.064C152.054 11.224 152.219 11.3947 152.39 11.576C152.571 11.7467 152.742 11.9173 152.902 12.088C153.062 12.248 153.211 12.4027 153.35 12.552C153.488 12.6907 153.606 12.808 153.702 12.904C153.99 13.2027 154.267 13.5013 154.534 13.8C154.8 14.088 155.062 14.3813 155.318 14.68L155.366 14.728C155.451 14.8133 155.531 14.904 155.606 15C155.68 15.0853 155.75 15.1707 155.814 15.256C155.974 15.4373 156.086 15.6347 156.15 15.848Z" fill="black"/>
<path d="M15.344 15.784C15.3333 15.9653 15.3067 16.1573 15.264 16.36C15.232 16.5627 15.1307 16.728 14.96 16.856C14.832 16.9627 14.688 17.0267 14.528 17.048C14.368 17.0693 14.208 17.0587 14.048 17.016C13.8987 16.984 13.7547 16.9307 13.616 16.856C13.4773 16.7707 13.3653 16.6693 13.28 16.552C12.9173 16.104 12.5813 15.6453 12.272 15.176C11.9733 14.696 11.6693 14.216 11.36 13.736L10.016 11.704C9.83467 11.416 9.64267 11.096 9.44 10.744C9.23733 10.3813 9.02933 10.0453 8.816 9.736L8.768 15.848V15.992C8.768 16.1627 8.736 16.3333 8.672 16.504C8.61867 16.664 8.52267 16.8027 8.384 16.92C8.27733 17.0053 8.13867 17.064 7.968 17.096C7.70133 17.1493 7.47733 17.1333 7.296 17.048C7.12533 16.9627 6.98667 16.8453 6.88 16.696C6.784 16.5467 6.71467 16.376 6.672 16.184C6.64 15.9813 6.63467 15.784 6.656 15.592V15.32L6.688 14.072L6.704 11.752C6.71467 11.4107 6.72 11.064 6.72 10.712C6.72 10.3493 6.72 9.98133 6.72 9.608C6.70933 9.14933 6.70933 8.664 6.72 8.152C6.74133 7.64 6.76267 7.16 6.784 6.712C6.80533 6.46667 6.864 6.25867 6.96 6.088C7.00267 5.93867 7.11467 5.81067 7.296 5.704C7.41333 5.62933 7.56267 5.58133 7.744 5.56C7.936 5.53867 8.10133 5.544 8.24 5.576C8.29333 5.59733 8.34667 5.624 8.4 5.656C8.45333 5.67733 8.50667 5.704 8.56 5.736C8.61333 5.77867 8.66133 5.82133 8.704 5.864C8.75733 5.90667 8.80533 5.95467 8.848 6.008C8.90133 6.06133 8.94933 6.12 8.992 6.184C9.03467 6.23733 9.07733 6.29067 9.12 6.344C9.152 6.408 9.184 6.46667 9.216 6.52C9.248 6.57333 9.28533 6.62667 9.328 6.68L9.504 6.936L13.2 12.76V11.704C13.2 11.3627 13.1947 11.016 13.184 10.664C13.184 10.3013 13.1787 9.928 13.168 9.544C13.168 9.096 13.168 8.616 13.168 8.104C13.1787 7.592 13.1947 7.112 13.216 6.664C13.216 6.48267 13.2693 6.27467 13.376 6.04C13.4293 5.90133 13.52 5.78933 13.648 5.704C13.776 5.61867 13.92 5.56 14.08 5.528C14.24 5.496 14.4 5.496 14.56 5.528C14.72 5.56 14.8587 5.624 14.976 5.72C15.008 5.752 15.04 5.78933 15.072 5.832C15.104 5.87467 15.1307 5.92267 15.152 5.976C15.2053 6.11467 15.2373 6.23733 15.248 6.344C15.28 6.49333 15.296 6.62667 15.296 6.744C15.296 8.07733 15.296 9.43733 15.296 10.824C15.3067 12.2107 15.3173 13.5707 15.328 14.904C15.328 15.0533 15.3333 15.2027 15.344 15.352C15.3547 15.4907 15.3547 15.6347 15.344 15.784Z" fill="white"/>
</svg>
